<svg width="24" height="24" viewBox="0 0 24 24" fill="none" xmlns="http://www.w3.org/2000/svg">
<path fill-rule="evenodd" clip-rule="evenodd" d="M4.22194 5.364C5.23353 4.35275 6.57301 3.73602 7.99905 3.62492C9.42509 3.51381 10.8439 3.91564 11.9999 4.758C13.2212 3.87442 14.7302 3.48272 16.227 3.66073C17.7238 3.83875 19.0988 4.57345 20.0788 5.71881C21.0587 6.86417 21.5718 8.33632 21.5161 9.84265C21.4603 11.349 20.8398 12.7792 19.7779 13.849L14.1209 19.506C13.5584 20.0684 12.7954 20.3844 11.9999 20.3844C11.2044 20.3844 10.4415 20.0684 9.87894 19.506L4.22194 13.85C3.09681 12.7248 2.46472 11.1987 2.46472 9.6075C2.46472 8.01627 3.09681 6.48921 4.22194 5.364Z" fill="#FF0000"/>
</svg>
