<svg width="30" height="30" viewBox="0 0 30 30" fill="none" xmlns="http://www.w3.org/2000/svg">
<circle cx="15" cy="15" r="15" fill="white"/>
<path d="M20.5417 10.875C20.5417 9.2063 19.865 7.69589 18.7727 6.60355C17.6791 5.51001 16.1687 4.83334 14.5 4.83334C12.8313 4.83334 11.3209 5.51001 10.2273 6.60355C9.135 7.69589 8.45833 9.2063 8.45833 10.875C8.45833 12.5437 9.135 14.0541 10.2273 15.1465C11.3209 16.24 12.8313 16.9167 14.5 16.9167C16.1687 16.9167 17.6791 16.24 18.7727 15.1465C19.3344 14.5861 19.7798 13.9203 20.0834 13.1873C20.387 12.4542 20.5427 11.6684 20.5417 10.875ZM7.25 22.9583C7.25 24.1667 9.96875 25.375 14.5 25.375C18.7509 25.375 21.75 24.1667 21.75 22.9583C21.75 20.5417 18.9056 18.125 14.5 18.125C9.96875 18.125 7.25 20.5417 7.25 22.9583Z" fill="#777777"/>
</svg>
